<svg xmlns="http://www.w3.org/2000/svg" viewBox="0 0 48 48" width="48" height="48">
  <defs>
    <linearGradient id="d" x1="10" y1="10" x2="38" y2="38" gradientUnits="userSpaceOnUse">
      <stop stop-color="#FFC94D"/>
      <stop offset="0.45" stop-color="#F58A07"/>
      <stop offset="1" stop-color="#FF6A3D"/>
    </linearGradient>
    <linearGradient id="r" x1="24" y1="4" x2="24" y2="20" gradientUnits="userSpaceOnUse">
      <stop stop-color="#FF6A3D" stop-opacity="0"/>
      <stop offset="0.55" stop-color="#F58A07"/>
      <stop offset="1" stop-color="#FFC94D"/>
    </linearGradient>
    <radialGradient id="g" cx="24" cy="24" r="20" gradientUnits="userSpaceOnUse">
      <stop stop-color="#F58A07" stop-opacity="0.35"/>
      <stop offset="1" stop-color="#F58A07" stop-opacity="0"/>
    </radialGradient>
  </defs>
  <rect width="48" height="48" rx="11" fill="#070A12"/>
  <circle cx="24" cy="24" r="20" fill="url(#g)"/>
  <g fill="url(#r)">
    <path d="M24 5.5 L25.5 18 L22.5 18 Z"/>
    <path d="M24 5.5 L25.5 18 L22.5 18 Z" transform="rotate(30 24 24)"/>
    <path d="M24 5.5 L25.5 18 L22.5 18 Z" transform="rotate(60 24 24)"/>
    <path d="M24 5.5 L25.5 18 L22.5 18 Z" transform="rotate(90 24 24)"/>
    <path d="M24 5.5 L25.5 18 L22.5 18 Z" transform="rotate(120 24 24)"/>
    <path d="M24 5.5 L25.5 18 L22.5 18 Z" transform="rotate(150 24 24)"/>
    <path d="M24 5.5 L25.5 18 L22.5 18 Z" transform="rotate(180 24 24)"/>
    <path d="M24 5.5 L25.5 18 L22.5 18 Z" transform="rotate(210 24 24)"/>
    <path d="M24 5.5 L25.5 18 L22.5 18 Z" transform="rotate(240 24 24)"/>
    <path d="M24 5.5 L25.5 18 L22.5 18 Z" transform="rotate(270 24 24)"/>
    <path d="M24 5.5 L25.5 18 L22.5 18 Z" transform="rotate(300 24 24)"/>
    <path d="M24 5.5 L25.5 18 L22.5 18 Z" transform="rotate(330 24 24)"/>
  </g>
  <circle cx="24" cy="24" r="14.25" stroke="url(#d)" stroke-opacity="0.35" stroke-width="1" fill="none"/>
  <circle cx="24" cy="24" r="11" fill="url(#d)"/>
  <circle cx="24" cy="24" r="4.25" fill="#070A12"/>
  <circle cx="24" cy="24" r="4.25" fill="none" stroke="#FFC94D" stroke-opacity="0.5" stroke-width="0.75"/>
</svg>
